<svg xmlns="http://www.w3.org/2000/svg" xmlns:xlink="http://www.w3.org/1999/xlink" width="100" height="34.12" viewBox="0 0 100 34.12"><defs><style>.a{clip-path:url(#b);}.b{fill:#a5694b;}.c{fill:#925f4a;}.d{fill:#b97850;}.e{fill:#ffe678;}.f{fill:#ffc855;}.g{fill:#6e4141;}.h{fill:#784b46;}.i{fill:#a0786e;}.j{fill:#fff;}</style><clipPath id="b"><rect width="100" height="34.12"/></clipPath></defs><g id="a" class="a"><rect class="j" width="100" height="34.12"/><g transform="translate(32.471 8.901)"><path class="b" d="M802.492,363.673a3.22,3.22,0,0,1,1.489,3.483c.053,2.978-2.313,4.733-7.126,5.291a13.15,13.15,0,0,1-4.972-.532l-.558-.213-.372-1.2q-.04-2.553,0-2.712c.053-.106.053-1.808,0-5.079v-5.9l1.462-.558a20.679,20.679,0,0,1,5.61-.665,5.357,5.357,0,0,1,3.457.957,4.371,4.371,0,0,1,1.409,2.792,3.448,3.448,0,0,1-.771,2.845A4.055,4.055,0,0,1,801,363.221Zm-7.924-2.26a4.735,4.735,0,0,0,2.074.346c1.516-.106,2.234-.718,2.154-1.808a1.691,1.691,0,0,0-.745-1.436,2.457,2.457,0,0,0-1.6-.346,18.885,18.885,0,0,0-1.888.266A10.636,10.636,0,0,0,794.568,361.413Zm4.6,7.445a2.058,2.058,0,0,0,.851-1.861c-.027-1.3-1.09-1.914-3.137-1.861a6.732,6.732,0,0,0-1.781.292,10.126,10.126,0,0,0,0,3.563q.2.718,2.552.479A2.5,2.5,0,0,0,799.168,368.858Z" transform="translate(-790.932 -355.59)"/><path class="b" d="M1036.889,372.474a5.574,5.574,0,0,1-1.622-.239,9.436,9.436,0,0,1-1.2-.452l-.957-.612a12.3,12.3,0,0,1-1.2-1.755l-.319-.8a9.393,9.393,0,0,1-.425-2.526,5.172,5.172,0,0,1-.053-.771c0-.266.026-.585.053-.957l.053-.9c.053-.718.08-1.781.08-3.164l-.053-.984a6.134,6.134,0,0,1,.106-1.01c0-.08.08-.771.239-2.1a.368.368,0,0,1,.133-.239,2.62,2.62,0,0,1,1.09-.372l.452.08a1.574,1.574,0,0,0,.452.053,16.132,16.132,0,0,0,1.888-.133h.213c.372,0,.558.16.558.505v9.359c0,.239.053.957.133,2.154v.133a3.508,3.508,0,0,0,.186,1.117.655.655,0,0,0,.638.558.731.731,0,0,0,.745-.479l.027-.08a6.162,6.162,0,0,0,.505-1.781l.027-.425a6.207,6.207,0,0,0,.133-1.17l.053-1.383a6.369,6.369,0,0,0-.08-.984v-.4a23.958,23.958,0,0,0,.133-2.419c.026-.372.053-.931.053-1.649v-1.622l.08-.558a.532.532,0,0,1,.372-.558c.771-.08,1.25-.133,1.436-.133a11.926,11.926,0,0,1,1.569-.106c.239,0,.4.027.452.106.452.239.718.346.771.372q.2.08.239.558v.505a2.446,2.446,0,0,0,.053.505l.053.612-.053.851v1.489a5.171,5.171,0,0,0,.053.771l-.186,2.606a10.754,10.754,0,0,1-.08,1.143l-.133,1.143a4.531,4.531,0,0,1-.4,1.542l-.346.984a2.93,2.93,0,0,1-.532.824,2.777,2.777,0,0,1-.638.877,2.168,2.168,0,0,1-1.01.9.071.071,0,0,1-.08.08,3.377,3.377,0,0,1-1.941.8c-.186.027-.452.053-.771.08Z" transform="translate(-1017.034 -355.59)"/><path class="b" d="M1274.73,355.59a5.085,5.085,0,0,1,4.2,2.021c1.037,1.356,1.542,3.35,1.542,5.983a9.6,9.6,0,0,1-1.888,6.009,6.906,6.906,0,0,1-3.271,2.473,13.163,13.163,0,0,1-4.254.452c-.825,0-1.542-.027-2.154-.053l-.665-.612v-8.216c0-.824.106-3.4.292-7.711a35.645,35.645,0,0,1,5.451-.346Zm1.675,7.817a6.954,6.954,0,0,0-.213-1.888l-.08-.239a2.491,2.491,0,0,0-1.834-2.074,3.712,3.712,0,0,0-1.064-.133,3.912,3.912,0,0,0-.957.106l-.452.133v10.024a4.379,4.379,0,0,0,.9.08,2.989,2.989,0,0,0,3.3-2.446A19.887,19.887,0,0,0,1276.4,363.407Z" transform="translate(-1240.251 -355.59)"/><path class="b" d="M1501.432,355.59a5.085,5.085,0,0,1,4.2,2.021c1.037,1.356,1.542,3.35,1.542,5.983a9.6,9.6,0,0,1-1.888,6.009,6.907,6.907,0,0,1-3.271,2.473,13.162,13.162,0,0,1-4.254.452c-.824,0-1.542-.027-2.154-.053l-.665-.612v-8.216c0-.824.106-3.4.292-7.711a35.647,35.647,0,0,1,5.451-.346Zm1.675,7.817a6.953,6.953,0,0,0-.213-1.888l-.08-.239a2.491,2.491,0,0,0-1.835-2.074,3.708,3.708,0,0,0-1.063-.133,3.916,3.916,0,0,0-.957.106l-.452.133v10.024a4.378,4.378,0,0,0,.9.08,2.989,2.989,0,0,0,3.3-2.446A19.866,19.866,0,0,0,1503.107,363.407Z" transform="translate(-1453.658 -355.59)"/><path class="b" d="M1727.59,357.346c.186-.08.266-.186.266-.319l.133-.08a.732.732,0,0,1,.479-.266,5.7,5.7,0,0,1,1.542-.186,7.8,7.8,0,0,1,1.09.08.325.325,0,0,0,.239.106c.425,0,.638.213.638.665a.2.2,0,0,1,.053.133l-.053.4c.027.4.053.638.053.771l-.053,1.542-.026.08a2.849,2.849,0,0,0-.186.93l-.106.08a5.679,5.679,0,0,1-.771,2.207,3.015,3.015,0,0,1-1.329,1.649c-.08,0-.186.08-.319.213a4.134,4.134,0,0,1-1.436.877.742.742,0,0,0-.319.665l.027,1.223-.133,2.606c-.027.186-.08.479-.106.878s-.08.691-.107.877c0,.292-.106.452-.346.452h-3.4a1.313,1.313,0,0,1-.638-.106c-.08,0-.107-.106-.107-.346a5.981,5.981,0,0,0,.107-1.409c0-.745.08-1.781.213-3.084,0-.186.026-.452.053-.744.027-.319.053-.532.053-.665a.415.415,0,0,0-.213-.346l-1.648-.665a6.216,6.216,0,0,1-.984-.744,5.709,5.709,0,0,1-1.33-3.4,21.849,21.849,0,0,1,.319-3.749,1.625,1.625,0,0,1,.452-1.2,2.116,2.116,0,0,1,.426-.346,8,8,0,0,1,.9-.027,8.645,8.645,0,0,0,.984-.053h.984a4.357,4.357,0,0,1,.984.08c.372.133.558.346.558.665l-.133,2.1a9.469,9.469,0,0,0,.345,2.526,1.092,1.092,0,0,0,.452.665,2.381,2.381,0,0,0,.292.053.554.554,0,0,0,.452-.292.85.85,0,0,1,.452-.213.2.2,0,0,0,.213-.213,2.2,2.2,0,0,0,.452-.877c.08-.372.186-.877.319-1.542Z" transform="translate(-1664.501 -356.016)"/></g><g transform="translate(0 0)"><path class="b" d="M247.782,510.122c-.01-.012-.022-.023-.033-.035H232.43c-.01.012-.023.023-.033.035-.619.326-5.336,2.914-4.665,5.88a2.379,2.379,0,0,0,2.378,1.781,10.05,10.05,0,0,0,19.959,0A2.378,2.378,0,0,0,252.447,516C253.118,513.036,248.4,510.448,247.782,510.122Z" transform="translate(-227.667 -492.532)"/><g transform="translate(0 17.555)"><path class="c" d="M292.087,515.409a11.8,11.8,0,0,0,9.183-4.377,15.245,15.245,0,0,0-1.491-.91c-.01-.012-.022-.023-.033-.035h-15.32c-.01.012-.023.023-.033.035a15.208,15.208,0,0,0-1.491.91A11.8,11.8,0,0,0,292.087,515.409Z" transform="translate(-279.665 -510.086)"/><path class="c" d="M232.4,510.122h0c-.619.326-5.336,2.914-4.665,5.88a2.378,2.378,0,0,0,2.378,1.781,10.028,10.028,0,0,0,11.729,8.709c.008,0,.018-.007.026-.009a10.043,10.043,0,0,1-5.887-16.4h-3.547C232.421,510.1,232.415,510.122,232.4,510.122Z" transform="translate(-227.669 -510.087)"/></g><circle class="b" cx="4.141" cy="4.141" r="4.141" transform="translate(0.592)"/><circle class="c" cx="2.958" cy="2.958" r="2.958" transform="translate(1.775 1.183)"/><circle class="b" cx="4.141" cy="4.141" r="4.141" transform="translate(15.972)"/><circle class="c" cx="2.958" cy="2.958" r="2.958" transform="translate(17.155 1.183)"/><g transform="translate(1.775 0.59)"><path class="d" d="M505.917,682.184a2.363,2.363,0,0,0-2.211-.55,4.939,4.939,0,0,0-3.618,3.617,2.364,2.364,0,0,0,.55,2.211,2.182,2.182,0,0,0,1.584.614,3.2,3.2,0,0,0,.626-.065,4.939,4.939,0,0,0,3.618-3.617A2.365,2.365,0,0,0,505.917,682.184Z" transform="translate(-485.827 -654.548)"/><circle class="d" cx="10.648" cy="10.648" r="10.648"/></g><path class="b" d="M261.688,228.184a10.643,10.643,0,0,1,8.769-10.472,10.648,10.648,0,1,0,0,20.945A10.643,10.643,0,0,1,261.688,228.184Z" transform="translate(-256.155 -216.946)"/><ellipse class="e" cx="4.667" cy="4.141" rx="4.667" ry="4.141" transform="translate(7.755 12.918)"/><path class="f" d="M361.556,433.53a4.314,4.314,0,0,1,3.845-4.073,5.258,5.258,0,0,0-.822-.068,4.171,4.171,0,1,0,0,8.282,5.261,5.261,0,0,0,.822-.068A4.314,4.314,0,0,1,361.556,433.53Z" transform="translate(-352.157 -416.471)"/><g transform="translate(7.099 10.583)"><path class="g" d="M349.6,391.388h0a.887.887,0,0,1-.887-.887v-.593a.887.887,0,0,1,.887-.887h0a.887.887,0,0,1,.887.887v.593A.887.887,0,0,1,349.6,391.388Z" transform="translate(-348.715 -389.021)"/><path class="g" d="M500.91,391.388h0a.887.887,0,0,1-.887-.887v-.593a.887.887,0,0,1,.887-.887h0a.887.887,0,0,1,.887.887v.593A.887.887,0,0,1,500.91,391.388Z" transform="translate(-491.15 -389.021)"/></g><path class="d" d="M273.157,682.938a4.652,4.652,0,0,0-2.314-1.3,2.209,2.209,0,0,0-2.76,2.76,4.939,4.939,0,0,0,3.618,3.617,3.187,3.187,0,0,0,.626.065,2.181,2.181,0,0,0,1.584-.614,2.365,2.365,0,0,0,.55-2.211A4.651,4.651,0,0,0,273.157,682.938Z" transform="translate(-265.653 -653.958)"/><path class="b" d="M270.987,686.707a4.648,4.648,0,0,1-1.3-2.314,2.364,2.364,0,0,1,.549-2.211,2.032,2.032,0,0,1,.813-.492c-.067-.017-.133-.045-.2-.058a2.209,2.209,0,0,0-2.76,2.76,4.939,4.939,0,0,0,3.618,3.617,3.187,3.187,0,0,0,.626.065,2.448,2.448,0,0,0,.766-.125A4.713,4.713,0,0,1,270.987,686.707Z" transform="translate(-265.654 -653.957)"/><g transform="translate(9.465 14.006)"><path class="c" d="M502.235,687.461a2.364,2.364,0,0,1-.55-2.211,4.652,4.652,0,0,1,1.3-2.313,4.716,4.716,0,0,1,2.114-1.246,2.73,2.73,0,0,0-1.4-.058,4.939,4.939,0,0,0-3.617,3.617,2.364,2.364,0,0,0,.55,2.211,2.181,2.181,0,0,0,1.584.614,3.192,3.192,0,0,0,.626-.065c.069-.014.138-.042.207-.06A2.034,2.034,0,0,1,502.235,687.461Z" transform="translate(-493.515 -667.963)"/><path class="c" d="M394.8,452.037a.591.591,0,0,0-.836,0,1.012,1.012,0,0,1-1.356.195v-2.077a.592.592,0,0,0-1.183,0v2.076a1.023,1.023,0,0,1-1.356-.194.592.592,0,0,0-.837.837,2.231,2.231,0,0,0,1.6.713,2.219,2.219,0,0,1,2.363,0,2.23,2.23,0,0,0,1.6-.713A.591.591,0,0,0,394.8,452.037Z" transform="translate(-389.06 -449.563)"/></g><ellipse class="h" cx="2.366" cy="1.479" rx="2.366" ry="1.479" transform="translate(10.056 12.347)"/><path class="g" d="M400.333,420.78c0-.688.756-1.262,1.775-1.427a3.672,3.672,0,0,0-.592-.052c-1.307,0-2.366.662-2.366,1.479s1.059,1.479,2.366,1.479a3.673,3.673,0,0,0,.592-.052C401.089,422.042,400.333,421.468,400.333,420.78Z" transform="translate(-389.094 -406.954)"/><circle class="i" cx="0.592" cy="0.592" r="0.592" transform="translate(13.014 12.939)"/></g></g></svg>