<?xml version="1.0" encoding="utf-8"?>
<!-- Generator: Adobe Illustrator 12.0.0, SVG Export Plug-In . SVG Version: 6.00 Build 51448)  -->
<!DOCTYPE svg PUBLIC "-//W3C//DTD SVG 1.1//EN" "http://www.w3.org/Graphics/SVG/1.1/DTD/svg11.dtd" [
	<!ENTITY ns_svg "http://www.w3.org/2000/svg">
	<!ENTITY ns_xlink "http://www.w3.org/1999/xlink">
]>
<svg  version="1.1"
	 id="svg2" xmlns:sodipodi="http://sodipodi.sourceforge.net/DTD/sodipodi-0.dtd" sodipodi:version="0.32" sodipodi:docname="logo-hcmut.svg" inkscape:version="0.46" xmlns:svg="http://www.w3.org/2000/svg" xmlns:inkscape="http://www.inkscape.org/namespaces/inkscape" xmlns:cc="http://creativecommons.org/ns#" xmlns:rdf="http://www.w3.org/1999/02/22-rdf-syntax-ns#" xmlns:dc="http://purl.org/dc/elements/1.1/" inkscape:output_extension="org.inkscape.output.svg.inkscape"
	 xmlns="&ns_svg;" xmlns:xlink="&ns_xlink;" width="543" height="554" viewBox="0 0 543 554"
	 overflow="visible" enable-background="new 0 0 543 554" xml:space="preserve">
<defs>
	
	
		<inkscape:perspective  id="perspective10" inkscape:vp_z="744.09448 : 526.18109 : 1" inkscape:vp_x="0 : 526.18109 : 1" inkscape:vp_y="0 : 1000 : 0" sodipodi:type="inkscape:persp3d" inkscape:persp3d-origin="372.04724 : 350.78739 : 1">
		</inkscape:perspective>
	
		<inkscape:perspective  id="perspective3180" inkscape:vp_z="744.09448 : 526.18109 : 1" inkscape:vp_x="0 : 526.18109 : 1" inkscape:vp_y="0 : 1000 : 0" sodipodi:type="inkscape:persp3d" inkscape:persp3d-origin="372.04724 : 350.78739 : 1">
		</inkscape:perspective>
</defs>
<sodipodi:namedview  id="base" inkscape:cy="312.67326" borderopacity="1.0" inkscape:guide-bbox="true" inkscape:window-width="1024" inkscape:current-layer="layer1" inkscape:zoom="0.5" gridtolerance="10000" showguides="true" showgrid="false" pagecolor="#ffffff" bordercolor="#666666" inkscape:cx="156.46101" guidetolerance="10" objecttolerance="10" inkscape:pageopacity="0.0" inkscape:pageshadow="2" inkscape:document-units="px" inkscape:window-height="712" inkscape:window-x="-4" inkscape:window-y="-4">
	</sodipodi:namedview>
<g id="layer1" transform="translate(-2,-2.3621826)" inkscape:label="Layer 1" inkscape:groupmode="layer">
	<path id="path3184" sodipodi:nodetypes="ccccccccccccc" fill="#FFFFFF" d="M275,2.362l-142,82v151l-131,75v163l140,81l131-76
		l133,78l137-82l2-165l-133-74l1-152L275,2.362z"/>
	<path id="path3212" fill="#032B91" d="M274,16.362l-131,75v151l131-74V16.362z"/>
	<path id="path3214" fill="#1488DB" d="M274,16.362v151l129,75v-150L274,16.362z"/>
	<path id="path3216" fill="#1488DB" d="M273.489,467.21l130.77,75.5l129.452-74.218l-129.904-75L273.489,467.21z"/>
	<path id="path3218" fill="#1488DB" d="M11.778,467.079l130.77-75.5L143,242.362l-129.904,75L11.778,467.079z"/>
	<path id="path3220" fill="#032B91" d="M11.364,467.138l130.452,75.949l130.77-75.5L143,391.138L11.364,467.138z"/>
	<path id="path3222" fill="#032B91" d="M403.389,242.362l-0.548,150.949l130.771,75.5l1.414-150.449L403.389,242.362z"/>
	
		<path id="path3202" sodipodi:arg2="1.0526292" sodipodi:cy="312.36218" sodipodi:arg1="0.52903047" sodipodi:cx="324" sodipodi:r2="130.41089" sodipodi:sides="6" sodipodi:r1="150.58553" sodipodi:type="star" inkscape:flatsided="true" inkscape:rounded="0" inkscape:randomized="0" fill="#FFFFFF" d="
		M403,393.586l-130.818,74.583l-130-76L143,241.586l130.818-74.583l130,76L403,393.586z"/>
	<g enable-background="new    ">
		<path fill="#032B91" d="M208.184,335.362V244.55h19.835c4.747,0,8.88,0.205,12.397,0.614s6.845,1.351,9.981,2.824
			c3.814,1.965,6.972,4.829,9.473,8.595c2.5,3.766,3.751,7.695,3.751,11.788c0,3.766-0.891,7.224-2.67,10.375
			c-1.78,3.152-4.365,5.506-7.755,7.061c5.17,1.555,9.127,4.253,11.871,8.097s4.116,8.423,4.116,13.737
			c0,9.077-3.813,16.273-11.438,21.589c-3.305,2.371-7.413,4.048-12.327,5.029c-3.813,0.736-8.346,1.104-13.598,1.104H208.184z
			 M225.746,279.675h3.301h2.793c1.438,0,3.004-0.122,4.697-0.368c1.692-0.246,3.089-0.615,4.189-1.107
			c3.555-1.557,5.332-4.344,5.332-8.36c0-1.885-0.508-3.503-1.523-4.855s-2.455-2.438-4.316-3.259
			c-0.593-0.245-1.376-0.43-2.349-0.553c-0.974-0.123-2.053-0.185-3.237-0.185h-8.887V279.675z M225.746,318.925h7.102
			c3.043,0,5.706-0.204,7.989-0.613c2.283-0.408,4.439-1.268,6.469-2.576c3.043-1.963,4.565-4.906,4.565-8.832
			c0-2.127-0.508-3.926-1.522-5.398c-1.015-1.472-2.621-2.78-4.818-3.925c-1.184-0.654-2.685-1.104-4.502-1.35
			c-1.818-0.245-3.615-0.368-5.391-0.368h-9.892V318.925z"/>
		<path fill="#032B91" d="M283.19,335.362V244.55h17.563v39.25l29.241-39.25h20.85l-35.597,44.636l35.597,46.177h-20.85
			l-29.241-39.813v39.813H283.19z"/>
	</g>
	<g enable-background="new    ">
		<path fill="#1488DB" d="M198.111,388.409v-27.5h-6.75v-6.094h20.344v6.094h-6.844v27.5H198.111z"/>
		<path fill="#1488DB" d="M222.464,388.409h-6.844v-33.594h9.534c2.119,0,3.832,0.099,5.14,0.295
			c1.308,0.197,2.656,0.719,4.047,1.566c1.39,0.848,2.524,2.035,3.401,3.563c0.877,1.528,1.316,3.139,1.316,4.833
			c0,1.665-0.365,3.238-1.093,4.721s-1.822,2.753-3.279,3.812c-1.126,0.878-2.6,1.483-4.421,1.815
			c-1.292,0.242-2.965,0.363-5.018,0.363h-1.491h-1.292V388.409z M222.464,369.69h1.193h1.491c1.292,0,2.502-0.143,3.629-0.43
			s1.997-0.8,2.61-1.539s0.92-1.592,0.92-2.558c0-2.143-1.193-3.47-3.58-3.983c-0.994-0.181-2.154-0.271-3.48-0.271h-2.784V369.69z"
			/>
		<path fill="#1488DB" d="M244.022,388.409v-6.094h6.656v6.094H244.022z"/>
		<path fill="#1488DB" d="M258.239,388.409v-33.594h6.844v13.438h13.125v-13.438h6.75v33.594h-6.75v-14.063h-13.125v14.063H258.239z
			"/>
		<path fill="#1488DB" d="M318.512,379.223h7.849c-1.357,2.998-3.626,5.414-6.804,7.248s-6.571,2.751-10.18,2.751
			c-5.231,0-9.717-1.741-13.458-5.223c-3.741-3.482-5.611-7.615-5.611-12.399c0-4.784,1.854-8.886,5.562-12.308
			c3.708-3.421,8.144-5.132,13.309-5.132c3.773,0,7.274,0.932,10.503,2.796c3.227,1.864,5.52,4.357,6.877,7.478h-7.748
			c-1.16-1.302-2.592-2.325-4.298-3.067s-3.485-1.113-5.34-1.113c-3.312,0-6.143,1.135-8.494,3.404
			c-2.352,2.27-3.527,4.978-3.527,8.124c0,3.026,1.208,5.673,3.626,7.943s5.249,3.404,8.495,3.404c1.788,0,3.444-0.325,4.968-0.976
			S317.188,380.524,318.512,379.223z"/>
		<path fill="#1488DB" d="M331.355,388.409v-33.594h9.338l9.835,25.688l9.935-25.688h9.236v33.594h-6.75l0.012-25.151l-9.529,25.16
			l-5.797-0.003l-9.434-25.163l-0.002,25.158H331.355z"/>
	</g>
</g>
</svg>
